PathFileType	4	(X/Y/Z)	C:/Users/opensim2020/Desktop/walking_exp_matlab/subject06_walking16_straight_02.trc																																																																																																																																																							
DataRate	CameraRate	NumFrames	NumMarkers	Units	OrigDataRate	OrigDataStartFrame	OrigNumFrames																																																																																																																																																			
100	100	4	51	mm	100	2060	283																																																																																																																																																			
Frame#	Time	LFHD			RFHD			LBHD			RBHD			C7			T10			CLAV			STRN			RBAK			LSHO			LUPA			LELB			LFRM			LWRA			LWRB			LFIN			RSHO			RUPA			RELB			RFRM			RWRA			RWRB			RFIN			LASI			RASI			LPSI			RPSI			LTHI			LKNE			LTIB			LANK			LHEE			LTOE			RTHI			RKNE			RTIB			RANK			RHEE			RTOE			*39			*40			*41			*42			*43			*44			*45			*46			*47			*48			*49			*50		
		X1	Y1	Z1	X2	Y2	Z2	X3	Y3	Z3	X4	Y4	Z4	X5	Y5	Z5	X6	Y6	Z6	X7	Y7	Z7	X8	Y8	Z8	X9	Y9	Z9	X10	Y10	Z10	X11	Y11	Z11	X12	Y12	Z12	X13	Y13	Z13	X14	Y14	Z14	X15	Y15	Z15	X16	Y16	Z16	X17	Y17	Z17	X18	Y18	Z18	X19	Y19	Z19	X20	Y20	Z20	X21	Y21	Z21	X22	Y22	Z22	X23	Y23	Z23	X24	Y24	Z24	X25	Y25	Z25	X26	Y26	Z26	X27	Y27	Z27	X28	Y28	Z28	X29	Y29	Z29	X30	Y30	Z30	X31	Y31	Z31	X32	Y32	Z32	X33	Y33	Z33	X34	Y34	Z34	X35	Y35	Z35	X36	Y36	Z36	X37	Y37	Z37	X38	Y38	Z38	X39	Y39	Z39	X40	Y40	Z40	X41	Y41	Z41	X42	Y42	Z42	X43	Y43	Z43	X44	Y44	Z44	X45	Y45	Z45	X46	Y46	Z46	X47	Y47	Z47	X48	Y48	Z48	X49	Y49	Z49	X50	Y50	Z50	X51	Y51	Z51
																																																																																																																																																										
107	1.06	-586.45459	1654.82178	-1506.9635	-594.44427	1638.55688	-1376.26953	-720.3316	1602.42651	-1517.30286	-727.05896	1591.85913	-1389.53601	-729.80237	1444.77112	-1464.13098	-766.052	1114.94604	-1452.85071	-621.64661	1363.94568	-1460.8208	-588.33307	1186.67236	-1470.80676	-807.58026	1272.96167	-1387.1134	-669.81329	1396.09631	-1623.27148	-646.74463	1196.99011	-1701.86597	-626.07642	1085.99683	-1719.04138	-541.31757	960.75409	-1722.84253	-448.09518	888.33789	-1657.46008	-491.13913	854.10352	-1702.44116	-418.77719	801.948	-1685.97681	-669.14386	1393.41797	-1299.8363	-720.90735	1195.61877	-1216.1543	-718.17755	1072.66846	-1206.83984	-706.83771	952.13086	-1193.95618	-652.31274	813.11487	-1230.46997	-706.04828	813.99628	-1189.50696	-670.40625	737.48199	-1191.50549	-600.1861	947.92432	-1574.22375	-581.07819	959.53442	-1351.01282	-753.13745	983.37158	-1530.79651	-734.15509	987.27295	-1362.90759	-721.71332	644.76733	-1618.17688	-763.68762	485.38751	-1595.3717	-890.72058	260.08157	-1589.5553	-961.35834	101.52807	-1545.37366	-1007.89148	101.10981	-1504.05566	-830.52167	39.42395	-1529.44397	-578.57214	636.72083	-1279.84766	-544.48962	517.44592	-1307.53027	-520.24194	259.38074	-1292.2135	-484.75772	74.74844	-1325.37292	-521.55585	43.62925	-1366.25464	-327.82846	56.18973	-1348.01123	-690.03711	1692.18591	-1452.48914	NaN	NaN	NaN	NaN	NaN	NaN	NaN	NaN	NaN	NaN	NaN	NaN	NaN	NaN	NaN	NaN	NaN	NaN	NaN	NaN	NaN	NaN	NaN	NaN	NaN	NaN	NaN	NaN	NaN	NaN	NaN	NaN	NaN
108	1.07	-578.78247	1655.86731	-1504.91919	-586.75409	1639.53955	-1374.4519	-713.11212	1603.78174	-1515.74878	-719.34796	1592.91406	-1387.59705	-721.98987	1445.65588	-1462.29492	-757.53632	1115.92786	-1451.30688	-613.7265	1365.1355	-1459.24243	-579.95306	1187.91406	-1469.17505	-799.21307	1273.8125	-1385.14441	-662.25671	1397.11719	-1621.56409	-639.16565	1197.94165	-1700.02905	-618.62524	1086.89539	-1716.92859	-534.90894	960.95013	-1720.85498	-442.3302	887.59369	-1655.68958	-485.3812	853.50098	-1700.67773	-413.66544	801.10205	-1684.55164	-660.99725	1394.44824	-1298.17554	-712.13489	1196.53491	-1213.90381	-709.1413	1073.47717	-1205.32996	-698.4292	952.89233	-1192.4292	-645.17163	813.45062	-1229.04065	-698.55145	814.73346	-1187.77527	-663.41071	737.89838	-1189.89111	-591.94958	948.72894	-1572.82361	-572.34827	960.7691	-1349.88354	-744.65637	984.57202	-1529.57849	-725.65198	988.88354	-1361.85681	-714.45306	645.83234	-1617.3783	-756.82764	486.49106	-1594.93945	-887.02417	262.90076	-1590.02271	-959.42621	104.82858	-1546.36462	-1005.80554	105.1795	-1505.14771	-830.16711	39.31958	-1529.69788	-571.83539	637.72491	-1278.75293	-538.77258	518.0907	-1305.72888	-515.20007	259.44141	-1291.12183	-482.75018	74.48708	-1324.6366	-520.48932	44.14021	-1365.39893	-326.47968	52.68899	-1348.99341	-682.3241	1693.29321	-1450.48816	NaN	NaN	NaN	NaN	NaN	NaN	NaN	NaN	NaN	NaN	NaN	NaN	NaN	NaN	NaN	NaN	NaN	NaN	NaN	NaN	NaN	NaN	NaN	NaN	NaN	NaN	NaN	NaN	NaN	NaN	NaN	NaN	NaN
109	1.08	-571.25537	1657.12305	-1503.2843	-579.07318	1640.54712	-1372.65662	-705.52277	1605.07593	-1513.82837	-711.64899	1594.07068	-1385.69727	-714.36786	1446.49695	-1460.52344	-748.84277	1116.92944	-1449.74512	-605.84344	1366.38159	-1457.63696	-571.2981	1189.31812	-1467.59619	-790.80334	1274.65186	-1383.30005	-654.77362	1398.40686	-1619.85742	-631.58051	1199.22449	-1698.0072	-611.04291	1088.16528	-1714.68469	-528.57458	961.37164	-1718.86255	-436.81808	886.83478	-1654.02795	-480.49158	853.43799	-1698.85815	-409.01401	800.24457	-1683.25708	-652.96222	1395.70435	-1296.6189	-702.94952	1197.61292	-1212.3042	-700.04498	1074.61047	-1203.82935	-689.88928	953.93243	-1190.86353	-637.85205	813.97064	-1227.40173	-690.9765	815.71277	-1185.93433	-656.45923	738.57758	-1188.15405	-583.50684	949.74927	-1571.31042	-563.69672	962.23883	-1348.78259	-736.07996	985.99103	-1528.33423	-716.98792	990.4021	-1360.76978	-706.89026	646.91943	-1616.4762	-749.47394	487.65549	-1594.4563	-883.06982	265.90631	-1590.38049	-957.21594	108.38141	-1547.39819	-1003.36011	109.56159	-1506.33716	-829.6925	39.19014	-1529.9812	-564.875	638.87592	-1277.27026	-532.14447	519.28186	-1304.37451	-511.16895	259.3728	-1289.75122	-482.04974	73.8087	-1323.7384	-520.33411	44.22665	-1364.61487	-325.97964	49.01305	-1349.13953	-674.60107	1694.46387	-1448.44373	NaN	NaN	NaN	NaN	NaN	NaN	NaN	NaN	NaN	NaN	NaN	NaN	NaN	NaN	NaN	NaN	NaN	NaN	NaN	NaN	NaN	NaN	NaN	NaN	NaN	NaN	NaN	NaN	NaN	NaN	NaN	NaN	NaN
110	1.09	-563.63458	1658.37598	-1501.42163	-571.3902	1641.70422	-1370.90466	-697.979	1606.42712	-1511.98438	-703.97681	1595.28345	-1383.85278	-706.70343	1447.40955	-1458.82715	-740.19141	1118.01587	-1448.1366	-597.76453	1367.7428	-1456.00659	-562.71472	1190.67737	-1465.97668	-782.38318	1275.45166	-1381.56702	-647.49963	1399.89441	-1618.14624	-623.98767	1200.68469	-1695.97913	-603.38452	1089.62708	-1712.27295	-522.51038	961.92017	-1716.6665	-431.55646	885.98755	-1652.36816	-475.73517	853.24823	-1697.16968	-404.8204	799.28021	-1682.07837	-645.03699	1397.13281	-1295.05444	-693.93738	1198.85266	-1210.93079	-690.66467	1075.89148	-1202.50549	-681.18463	955.18994	-1189.2605	-630.48828	814.69507	-1225.56177	-683.3349	816.89343	-1183.9696	-649.43512	739.45581	-1186.32776	-574.97968	950.81958	-1569.73938	-555.38843	963.71442	-1347.58545	-727.40009	987.466	-1526.9823	-708.35773	992.04175	-1359.48914	-699.02911	648.08008	-1615.55408	-741.79456	488.95554	-1593.86169	-878.64795	269.10034	-1590.72498	-954.70966	112.15605	-1548.44739	-1000.83429	114.38558	-1507.45532	-829.2655	39.13874	-1530.25293	-557.55518	640.2038	-1275.68494	-525.00494	520.65314	-1303.60352	-507.54181	259.30972	-1288.37598	-481.50403	73.3075	-1322.73425	-520.12152	44.24689	-1363.50208	-325.73312	46.86735	-1348.70422	-666.93323	1695.7373	-1446.53442	NaN	NaN	NaN	NaN	NaN	NaN	NaN	NaN	NaN	NaN	NaN	NaN	NaN	NaN	NaN	NaN	NaN	NaN	NaN	NaN	NaN	NaN	NaN	NaN	NaN	NaN	NaN	NaN	NaN	NaN	NaN	NaN	NaN
